# xmcd
#
# Track frame offsets:
#	150
#	12634
#	24044
#	37510
#	51186
#	60671
#	72136
#	84213
#	95016
#	109714
#	120064
#	130944
#	142653
#	153421
#	165912
#	177246
#	189284
#	200574
#	213004
#	225145
#	238262
#	248516
#	259307
#	270731
#	282941
#	295257
#	308376
#	320039
#	331485
#	345449
#	359780
#	369642
#
# Disc length: 5100 seconds
#
# Revision: 0
# Processed by: cddbd v1.5.2PL0 Copyright (c) Steve Scherf et al.
# Submitted via: EasyCDDAExtractor 12.0.7.1
#
DISCID=b813ea20
DTITLE=George Jones - A Good Year For The Roses (The Complete Musicor Recordin
DTITLE=gs 1965-71 - Part 2) - Disc 2
DYEAR=1967
DGENRE=Country
TTITLE0=Just An Average Couple (w/ Benda Carter)
TTITLE1=I'll See You While Ago
TTITLE2=She's Mine
TTITLE3=If Not For You
TTITLE4=The Race Is On (w/ Tammy Wynette)
TTITLE5=I'll Share My World With You (w/ Tammy Wynette)
TTITLE6=The Hardest Part of All (w/ Tammy Wynette)
TTITLE7=How Much Rain (w/ Tammy Wynette)
TTITLE8=Where Grass Won't Grow
TTITLE9=Old Blue Tomorrow
TTITLE10=Shoulder To Shoulder
TTITLE11=The Fortune I've Gone Through
TTITLE12=For Better or For Worse (But Not For long)
TTITLE13=She's As Close As I Can Get
TTITLE14=No Blues Is Good News
TTITLE15=I Know
TTITLE16=Among The Few
TTITLE17=Papa's Wagon
TTITLE18=Never Grow Old (w/ Tammy Wynette)
TTITLE19=Mama Take Me Home
TTITLE20=Playing Possum
TTITLE21=I Just Got Tired of Being Poor
TTITLE22=You Can Always Come back
TTITLE23=Going Life's Way
TTITLE24=Okie From Muskogee
TTITLE25=Image of Me
TTITLE26=Love Me
TTITLE27=I Stayed Long Enough
TTITLE28=All I Have To Offer You Is Me
TTITLE29=Mam's Hungry Eyes
TTITLE30=Each Season Changes You
TTITLE31=Will You Visit Me On Sunday
EXTD=
EXTT0=
EXTT1=
EXTT2=
EXTT3=
EXTT4=
EXTT5=
EXTT6=
EXTT7=
EXTT8=
EXTT9=
EXTT10=
EXTT11=
EXTT12=
EXTT13=
EXTT14=
EXTT15=
EXTT16=
EXTT17=
EXTT18=
EXTT19=
EXTT20=
EXTT21=
EXTT22=
EXTT23=
EXTT24=
EXTT25=
EXTT26=
EXTT27=
EXTT28=
EXTT29=
EXTT30=
EXTT31=
PLAYORDER=
